<?xml version="1.0" encoding="UTF-8"?>
<svg width="75px" height="75px" viewBox="0 0 75 75" version="1.1" xmlns="http://www.w3.org/2000/svg" xmlns:xlink="http://www.w3.org/1999/xlink">
    <!-- Generator: Sketch 52.2 (67145) - http://www.bohemiancoding.com/sketch -->
    <title>1gram</title>
    <desc>Created with Sketch.</desc>
    <g id="Page-1" stroke="none" stroke-width="1" fill="none" fill-rule="evenodd">
        <g id="1NETWORK-mockup" transform="translate(-110.000000, -1528.000000)">
            <g id="Group-55" transform="translate(110.000000, 1528.000000)">
                <g id="1gram">
                    <rect id="Rectangle" fill="#211E21" x="0" y="2.13162821e-14" width="75" height="74.137931" rx="14"></rect>
                    <path d="M32.1915698,18.2344828 C32.4845945,18.0896544 32.8325561,18.0172414 33.2354651,18.0172414 L42.1909884,18.0172414 C42.447385,18.0172414 42.6488365,18.0896544 42.7953488,18.2344828 C42.9418612,18.3793111 43.0151163,18.578447 43.0151163,18.8318966 L43.0151163,55.2198276 C43.0151163,55.4732771 42.9418612,55.6724131 42.7953488,55.8172414 C42.6488365,55.9620697 42.447385,56.0344828 42.1909884,56.0344828 L33.5101744,56.0344828 C33.2537778,56.0344828 33.0523263,55.9620697 32.905814,55.8172414 C32.7593016,55.6724131 32.6860465,55.4732771 32.6860465,55.2198276 L32.6860465,27.5758621 C32.6860465,27.5034479 32.6585759,27.4310348 32.6036337,27.3586207 C32.5486916,27.2862065 32.4845934,27.2681033 32.4113372,27.3043103 L27.1918605,28.3362069 L26.972093,28.3362069 C26.5325559,28.3362069 26.3127907,28.0827612 26.3127907,27.5758621 L26.3127907,21.3301724 C26.3127907,20.8232733 26.5325559,20.4974145 26.972093,20.3525862 L32.1915698,18.2344828 Z" id="1" fill="#F4FF52"></path>
                </g>
            </g>
        </g>
    </g>
</svg>