<?xml version="1.0" encoding="UTF-8"?>
<svg width="271px" height="75px" viewBox="0 0 271 75" version="1.1" xmlns="http://www.w3.org/2000/svg" xmlns:xlink="http://www.w3.org/1999/xlink">
    <!-- Generator: Sketch 52.2 (67145) - http://www.bohemiancoding.com/sketch -->
    <title>Group 2</title>
    <desc>Created with Sketch.</desc>
    <g id="Page-1" stroke="none" stroke-width="1" fill="none" fill-rule="evenodd">
        <g id="1NETWORK-mockup" transform="translate(-110.000000, -1344.000000)">
            <g id="Group-2" transform="translate(110.000000, 1344.000000)">
                <path d="M106.632302,62.9301741 C102.743759,62.9301741 99.3176244,62.1477351 96.3537959,60.5828337 C93.3899675,59.0179322 91.090071,56.8128769 89.4540377,53.9676015 C87.8180044,51.1223262 87,47.8503086 87,44.1514507 L87,30.7075919 C87,27.0087339 87.8180044,23.7485715 89.4540377,20.9270068 C91.090071,18.105442 93.3899675,15.9122419 96.3537959,14.3473404 C99.3176244,12.782439 102.743759,12 106.632302,12 C110.426002,12 113.816571,12.7468736 116.80411,14.2406431 C119.791649,15.7344127 122.103401,17.761641 123.739434,20.3223888 C125.375468,22.8831366 126.193472,25.6809487 126.193472,28.7159091 L126.193472,28.7870406 C126.193472,29.1189894 126.098631,29.3798024 125.908946,29.5694874 C125.719261,29.7591725 125.458448,29.8540135 125.126499,29.8540135 L113.958849,29.8540135 C113.24753,29.8540135 112.891876,29.6406211 112.891876,29.2138298 C112.891876,27.6489283 112.334685,26.2974428 111.220285,25.1593327 C110.105886,24.0212225 108.576573,23.452176 106.632302,23.452176 C104.735452,23.452176 103.217994,24.0804982 102.079884,25.3371615 C100.941774,26.5938248 100.372727,28.265399 100.372727,30.3519342 L100.372727,44.5782398 C100.372727,46.6173538 101.02476,48.2770729 102.328844,49.5574468 C103.632929,50.8378207 105.257082,51.4779981 107.201354,51.4779981 C108.95594,51.4779981 110.390412,50.9919375 111.504811,50.0198017 C112.619211,49.047666 113.176402,47.7080356 113.176402,46.0008704 L113.176402,45.0761605 C113.176402,44.8390543 113.057851,44.7205029 112.820745,44.7205029 L106.56117,44.7205029 C106.229221,44.7205029 105.968408,44.6256618 105.778723,44.4359768 C105.589038,44.2462918 105.494197,43.9854788 105.494197,43.65353 L105.494197,35.1177466 C105.494197,34.7857978 105.589038,34.5249848 105.778723,34.3352998 C105.968408,34.1456148 106.229221,34.0507737 106.56117,34.0507737 L125.126499,34.0507737 C125.458448,34.0507737 125.719261,34.1456148 125.908946,34.3352998 C126.098631,34.5249848 126.193472,34.7857978 126.193472,35.1177466 L126.193472,44.862766 C126.193472,48.3719389 125.375468,51.5016948 123.739434,54.2521277 C122.103401,57.0025605 119.803505,59.136485 116.839676,60.6539652 C113.875848,62.1714454 110.473423,62.9301741 106.632302,62.9301741 Z M157.27795,62.3611219 C156.661473,62.3611219 156.258399,62.1003089 156.068714,61.578675 L148.244246,43.5112669 C148.149403,43.3215819 148.007142,43.2267408 147.817456,43.2267408 L144.829932,43.2267408 C144.592826,43.2267408 144.474275,43.3452922 144.474275,43.5823985 L144.474275,61.2941489 C144.474275,61.6260977 144.379434,61.8869107 144.189749,62.0765957 C144.000064,62.2662808 143.739251,62.3611219 143.407302,62.3611219 L132.16852,62.3611219 C131.836572,62.3611219 131.575759,62.2662808 131.386074,62.0765957 C131.196388,61.8869107 131.101547,61.6260977 131.101547,61.2941489 L131.101547,13.6360251 C131.101547,13.3040764 131.196388,13.0432634 131.386074,12.8535783 C131.575759,12.6638933 131.836572,12.5690522 132.16852,12.5690522 L153.721373,12.5690522 C156.946019,12.5690522 159.779396,13.2329398 162.221591,14.560735 C164.663786,15.8885302 166.560607,17.7497865 167.912113,20.14456 C169.263619,22.5393334 169.939362,25.3015801 169.939362,28.431383 C169.939362,31.5611859 169.168778,34.2997223 167.627587,36.6470745 C166.086396,38.9944266 163.964327,40.7134214 161.261315,41.8041103 C161.024209,41.8989528 160.953078,42.0649247 161.047921,42.3020309 L170.081625,61.0807544 C170.176467,61.3652819 170.223888,61.5312538 170.223888,61.578675 C170.223888,61.8157813 170.129047,62.0054635 169.939362,62.1477273 C169.749677,62.289991 169.512574,62.3611219 169.228046,62.3611219 L157.27795,62.3611219 Z M144.829932,24.0212282 C144.592826,24.0212282 144.474275,24.1397796 144.474275,24.3768859 L144.474275,32.6992747 C144.474275,32.9363809 144.592826,33.0549323 144.829932,33.0549323 L151.516296,33.0549323 C153.033776,33.0549323 154.26671,32.6400025 155.215135,31.8101306 C156.163561,30.9802586 156.637766,29.9014412 156.637766,28.573646 C156.637766,27.1984296 156.163561,26.095902 155.215135,25.26603 C154.26671,24.436158 153.033776,24.0212282 151.516296,24.0212282 L144.829932,24.0212282 Z M208.136992,62.3611219 C207.473095,62.3611219 207.07002,62.0528883 206.927756,61.436412 L205.362863,55.8881528 C205.26802,55.6984678 205.149469,55.6036267 205.007205,55.6036267 L189.927321,55.6036267 C189.785057,55.6036267 189.666506,55.6984678 189.571663,55.8881528 L188.00677,61.436412 C187.864506,62.0528883 187.461431,62.3611219 186.797534,62.3611219 L174.634043,62.3611219 C173.78046,62.3611219 173.472226,61.9580472 173.709333,61.1518859 L188.718085,13.4226306 C188.90777,12.8535755 189.310845,12.5690522 189.927321,12.5690522 L205.007205,12.5690522 C205.623681,12.5690522 206.026756,12.8535755 206.216441,13.4226306 L221.225193,61.1518859 C221.272615,61.2467284 221.296325,61.38899 221.296325,61.578675 C221.296325,62.1003089 220.964381,62.3611219 220.300484,62.3611219 L208.136992,62.3611219 Z M192.701451,44.9338975 C192.654029,45.218425 192.748871,45.3606867 192.985977,45.3606867 L201.877418,45.3606867 C202.161945,45.3606867 202.256786,45.218425 202.161944,44.9338975 L197.609526,29.0004352 C197.562105,28.8581714 197.490974,28.7870406 197.396132,28.7870406 C197.301289,28.7870406 197.230158,28.8581714 197.182737,29.0004352 L192.701451,44.9338975 Z M257.431141,13.2803675 C257.715669,12.8061549 258.142454,12.5690522 258.711509,12.5690522 L269.808027,12.5690522 C270.139976,12.5690522 270.400789,12.6638933 270.590474,12.8535783 C270.780159,13.0432634 270.875,13.3040764 270.875,13.6360251 L270.875,61.2941489 C270.875,61.6260977 270.780159,61.8869107 270.590474,62.0765957 C270.400789,62.2662808 270.139976,62.3611219 269.808027,62.3611219 L258.569246,62.3611219 C258.237297,62.3611219 257.976484,62.2662808 257.786799,62.0765957 C257.597114,61.8869107 257.502273,61.6260977 257.502273,61.2941489 L257.502273,35.4734043 C257.502273,35.2837192 257.454852,35.177023 257.36001,35.1533124 C257.265167,35.1296018 257.170326,35.1888774 257.075484,35.3311412 L252.23854,43.2267408 C251.954012,43.7009534 251.527227,43.9380561 250.958172,43.9380561 L245.552176,43.9380561 C244.983121,43.9380561 244.556336,43.7009534 244.271809,43.2267408 L239.434865,35.3311412 C239.340022,35.1888774 239.245181,35.1296018 239.150338,35.1533124 C239.055496,35.177023 239.008075,35.2837192 239.008075,35.4734043 L239.008075,61.2941489 C239.008075,61.6260977 238.913234,61.8869107 238.723549,62.0765957 C238.533864,62.2662808 238.273051,62.3611219 237.941103,62.3611219 L226.702321,62.3611219 C226.370372,62.3611219 226.109559,62.2662808 225.919874,62.0765957 C225.730189,61.8869107 225.635348,61.6260977 225.635348,61.2941489 L225.635348,13.6360251 C225.635348,13.3040764 225.730189,13.0432634 225.919874,12.8535783 C226.109559,12.6638933 226.370372,12.5690522 226.702321,12.5690522 L237.798839,12.5690522 C238.367895,12.5690522 238.794679,12.8061549 239.079207,13.2803675 L248.041779,27.7200677 C248.184043,28.0045952 248.326305,28.0045952 248.468569,27.7200677 L257.431141,13.2803675 Z" id="GRAM" fill="#FFFFFF"></path>
                <g id="Group-55">
                    <g id="1gram">
                        <rect id="Rectangle" fill="#211E21" x="0" y="2.13162821e-14" width="75" height="74.137931" rx="14"></rect>
                        <path d="M32.1915698,18.2344828 C32.4845945,18.0896544 32.8325561,18.0172414 33.2354651,18.0172414 L42.1909884,18.0172414 C42.447385,18.0172414 42.6488365,18.0896544 42.7953488,18.2344828 C42.9418612,18.3793111 43.0151163,18.578447 43.0151163,18.8318966 L43.0151163,55.2198276 C43.0151163,55.4732771 42.9418612,55.6724131 42.7953488,55.8172414 C42.6488365,55.9620697 42.447385,56.0344828 42.1909884,56.0344828 L33.5101744,56.0344828 C33.2537778,56.0344828 33.0523263,55.9620697 32.905814,55.8172414 C32.7593016,55.6724131 32.6860465,55.4732771 32.6860465,55.2198276 L32.6860465,27.5758621 C32.6860465,27.5034479 32.6585759,27.4310348 32.6036337,27.3586207 C32.5486916,27.2862065 32.4845934,27.2681033 32.4113372,27.3043103 L27.1918605,28.3362069 L26.972093,28.3362069 C26.5325559,28.3362069 26.3127907,28.0827612 26.3127907,27.5758621 L26.3127907,21.3301724 C26.3127907,20.8232733 26.5325559,20.4974145 26.972093,20.3525862 L32.1915698,18.2344828 Z" id="1" fill="#F4FF52"></path>
                    </g>
                </g>
            </g>
        </g>
    </g>
</svg>